<svg xmlns="http://www.w3.org/2000/svg" version="1.1" xmlns:xlink="http://www.w3.org/1999/xlink" xmlns:svgjs="http://svgjs.dev/svgjs" width="1000" height="1000" viewBox="0 0 1000 1000"><g transform="matrix(1,0,0,1,0,0)"><svg viewBox="0 0 280 280" data-background-color="#ed1703" preserveAspectRatio="xMidYMid meet" height="1000" width="1000" xmlns="http://www.w3.org/2000/svg" xmlns:xlink="http://www.w3.org/1999/xlink"><g id="tight-bounds" transform="matrix(1,0,0,1,0,0)"><svg viewBox="0 0 280 280" height="280" width="280"><g><svg viewBox="0 0 280 280" height="280" width="280"><g transform="matrix(1,0,0,1,60.883236466599556,60.883236466599556)"><svg viewBox="0 0 158.2335270668009 158.2335270668009" height="158.2335270668009" width="158.2335270668009"><g><svg viewBox="0 0 158.2335270668009 158.2335270668009" height="158.2335270668009" width="158.2335270668009"><g><svg viewBox="0 0 158.2335270668009 158.2335270668009" height="158.2335270668009" width="158.2335270668009"><g id="textblocktransform"><svg viewBox="0 0 158.2335270668009 158.2335270668009" height="158.2335270668009" width="158.2335270668009" id="textblock"><g><svg viewBox="0 0 158.2335270668009 158.2335270668009" height="158.2335270668009" width="158.2335270668009"><g transform="matrix(1,0,0,1,32.496763533400426,32.496763533400426)"><svg viewBox="0 0 93.24000000000004 93.24000000000004" height="93.24000000000004" width="93.24000000000004"><g><circle r="47" cx="46.62000000000002" cy="46.62000000000002" fill="#ffffff" data-fill-palette-color="accent"></circle><svg xmlns="http://www.w3.org/2000/svg" xmlns:xlink="http://www.w3.org/1999/xlink" version="1.1" x="13.986000000000006" y="13.986000000000006" viewBox="0.9739999771118164 7.453999996185303 22.11199951171875 12.08399772644043" enable-background="new 0 0 24 24" xml:space="preserve" height="65.26800000000003" width="65.26800000000003" class="icon-o-0" data-fill-palette-color="quaternary" id="o-0"><path d="M22.535 11.698h-1.529v-1.177c0-0.579-0.471-1.049-1.05-1.049h-1.531v-0.97c0-0.578-0.469-1.048-1.048-1.048h-1.831c-0.578 0-1.048 0.47-1.048 1.048v3.196H9.563V8.502c0-0.578-0.471-1.048-1.049-1.048H6.684c-0.578 0-1.049 0.47-1.049 1.048v0.97H4.104c-0.579 0-1.048 0.471-1.048 1.049v1.177H1.523c-0.303 0-0.549 0.245-0.549 0.549v2.456c0 0.303 0.246 0.549 0.549 0.549h1.532v1.218c0 0.579 0.47 1.05 1.048 1.05h1.531v0.969c0 0.579 0.471 1.049 1.049 1.049h1.831c0.578 0 1.049-0.47 1.049-1.049v-3.236h4.935v3.236c0 0.579 0.47 1.049 1.048 1.049h1.831c0.579 0 1.048-0.47 1.048-1.049V17.52h1.531c0.579 0 1.05-0.471 1.05-1.05v-1.218h1.529c0.305 0 0.551-0.246 0.551-0.549v-2.456C23.086 11.943 22.84 11.698 22.535 11.698zM2.073 14.153v-1.357h0.982v1.357H2.073zM4.154 16.421V10.57h1.481v5.851H4.154zM8.464 18.438H6.733V16.47v-5.948V8.553h1.731V18.438zM9.563 14.153v-1.357h4.935v1.357H9.563zM17.327 18.438h-1.731V8.553h1.731v1.969 5.948V18.438zM19.906 16.421h-1.481V10.57h1.481V16.421zM21.986 14.153h-0.98v-1.357h0.98V14.153z" fill="#ed1703" data-fill-palette-color="quaternary"></path></svg></g></svg></g><g><path d="M14.706 62.202v0c-0.272-0.093-1.17-0.405-2.693-0.935-1.523-0.53-2.564-0.887-3.123-1.073-0.565-0.187-1.393-0.457-2.482-0.809-1.089-0.353-2.07-0.658-2.944-0.915v0c-0.378-0.116-0.662-0.348-0.854-0.697-0.185-0.347-0.226-0.711-0.123-1.093v0l0.036-0.104c0.59-1.8 1.419-4.214 2.487-7.244v0c0.126-0.367 0.372-0.64 0.737-0.819v0c0.361-0.166 0.729-0.185 1.102-0.057 0.367 0.126 0.64 0.372 0.819 0.738 0.172 0.363 0.193 0.735 0.063 1.115v0c-0.855 2.409-1.531 4.356-2.027 5.841v0c0.84 0.253 1.718 0.53 2.634 0.83v0c0.628-1.829 1.185-3.523 1.67-5.083v0c0.13-0.38 0.375-0.66 0.735-0.841 0.353-0.183 0.714-0.215 1.083-0.095 0.376 0.122 0.655 0.359 0.838 0.712 0.183 0.353 0.218 0.715 0.105 1.087v0c-0.509 1.566-1.076 3.278-1.7 5.137v0l4.576 1.571c0.38 0.13 0.657 0.374 0.831 0.731 0.172 0.363 0.194 0.732 0.066 1.105-0.13 0.38-0.374 0.657-0.731 0.831-0.357 0.175-0.726 0.197-1.105 0.067z" fill="#ffffff" data-fill-palette-color="primary"></path><path d="M21.278 49.74v0c-0.19 0.354-0.471 0.594-0.843 0.722-0.372 0.127-0.735 0.103-1.089-0.072v0c-0.318-0.171-0.548-0.423-0.688-0.756-0.14-0.333-0.153-0.663-0.039-0.989v0c-2.099-1.141-4.771-2.566-8.015-4.275v0c-0.22 0.254-0.497 0.417-0.831 0.488-0.334 0.071-0.658 0.023-0.971-0.144v0c-0.348-0.187-0.578-0.473-0.689-0.86-0.106-0.383-0.064-0.752 0.126-1.105v0l1.118-2.043c0.187-0.348 0.476-0.576 0.868-0.685 0.383-0.106 0.749-0.065 1.097 0.121v0c0.307 0.164 0.521 0.409 0.644 0.733 0.122 0.324 0.133 0.652 0.03 0.984v0c3.204 1.672 5.849 3.076 7.936 4.21v0c0.208-0.275 0.481-0.452 0.819-0.529 0.338-0.077 0.66-0.041 0.967 0.108v0c0.354 0.19 0.594 0.471 0.721 0.843 0.127 0.372 0.102 0.738-0.076 1.098v0z" fill="#ffffff" data-fill-palette-color="primary"></path><path d="M27.226 38.345v0c0.31 0.256 0.487 0.579 0.532 0.969 0.045 0.39-0.055 0.739-0.301 1.048-0.251 0.314-0.571 0.493-0.962 0.539-0.39 0.045-0.744-0.055-1.061-0.3v0c-0.326-0.268-1.868-1.451-4.629-3.548v0c-1.475-1.122-2.685-2.09-3.63-2.904v0c-0.671 0.869-1.232 1.606-1.683 2.214v0c-0.241 0.313-0.558 0.499-0.951 0.558-0.394 0.051-0.75-0.042-1.066-0.277-0.322-0.24-0.51-0.555-0.565-0.944-0.055-0.389 0.035-0.746 0.269-1.072v0c0.517-0.691 1.378-1.823 2.584-3.395 1.201-1.567 2.067-2.694 2.599-3.383v0c0.241-0.313 0.558-0.499 0.951-0.559 0.393-0.06 0.748 0.028 1.064 0.264 0.315 0.227 0.504 0.541 0.565 0.943 0.065 0.397-0.018 0.747-0.251 1.049v0c-0.528 0.683-1.11 1.455-1.749 2.314v0c0.898 0.786 2.1 1.753 3.608 2.899v0c2.792 2.122 4.351 3.316 4.676 3.585z" fill="#ffffff" data-fill-palette-color="primary"></path><path d="M31.915 32.94v0c-0.192-0.214-0.824-0.924-1.895-2.129-1.071-1.205-1.806-2.025-2.205-2.46-0.402-0.439-0.993-1.078-1.771-1.916-0.779-0.839-1.487-1.584-2.124-2.235v0c-0.273-0.285-0.409-0.627-0.406-1.024 0.007-0.393 0.149-0.731 0.425-1.015v0l0.082-0.073c1.392-1.284 3.293-2.988 5.703-5.112v0c0.289-0.259 0.637-0.377 1.043-0.355v0c0.396 0.031 0.726 0.194 0.99 0.488 0.259 0.289 0.377 0.637 0.355 1.043-0.027 0.401-0.19 0.736-0.488 1.004v0c-1.921 1.686-3.461 3.057-4.618 4.111v0c0.61 0.63 1.242 1.3 1.895 2.009v0c1.44-1.291 2.752-2.498 3.937-3.623v0c0.299-0.268 0.649-0.393 1.051-0.376 0.397 0.012 0.728 0.161 0.992 0.445 0.268 0.29 0.397 0.633 0.384 1.031-0.012 0.397-0.158 0.731-0.438 0.999v0c-1.208 1.119-2.538 2.337-3.989 3.656v0l3.229 3.603c0.268 0.299 0.391 0.647 0.37 1.044-0.027 0.401-0.187 0.734-0.481 0.997-0.299 0.268-0.647 0.391-1.044 0.369-0.397-0.022-0.729-0.182-0.997-0.481z" fill="#ffffff" data-fill-palette-color="primary"></path><path d="M44.376 24.956v0c-0.404 0.224-0.827 0.252-1.267 0.086v0c-0.376-0.096-0.672-0.314-0.888-0.652v0c-0.724-1.196-1.758-2.89-3.103-5.08v0l-3.003-4.953c-0.201-0.34-0.255-0.7-0.163-1.082 0.089-0.387 0.305-0.686 0.647-0.896 0.336-0.207 0.695-0.264 1.077-0.172 0.382 0.093 0.681 0.309 0.897 0.648v0l2.804 4.615 2.705 4.429c0.576-0.341 1.413-0.845 2.511-1.511 1.099-0.666 1.907-1.153 2.426-1.46v0c0.345-0.205 0.707-0.263 1.085-0.176 0.378 0.087 0.665 0.295 0.859 0.623 0.198 0.334 0.247 0.693 0.149 1.078-0.099 0.385-0.321 0.68-0.666 0.885v0c-0.386 0.228-1.393 0.833-3.021 1.813v0c-1.634 0.983-2.65 1.585-3.049 1.805z" fill="#ffffff" data-fill-palette-color="primary"></path><path d="M58.6 18.538v0c-0.971 0.284-1.898 0.359-2.783 0.227-0.893-0.137-1.673-0.44-2.339-0.909-0.674-0.472-1.259-1.035-1.753-1.687-0.495-0.653-0.882-1.373-1.161-2.162v0c-0.324-0.879-0.52-1.735-0.587-2.566-0.061-0.834-0.016-1.664 0.137-2.493 0.148-0.819 0.457-1.612 0.927-2.376 0.472-0.759 1.078-1.393 1.817-1.903v0c0.298-0.185 0.656-0.348 1.075-0.488v0l0.409-0.138c0.209-0.07 0.361-0.114 0.454-0.131 0.093-0.017 0.194-0.044 0.301-0.08v0c0.423-0.128 0.765-0.222 1.028-0.282 0.262-0.06 0.624-0.086 1.085-0.079 0.466-0.001 0.948 0.07 1.448 0.212v0c1.116 0.317 2.053 0.877 2.81 1.682 0.757 0.804 1.302 1.719 1.632 2.745 0.331 1.025 0.482 2.065 0.456 3.119v0c-0.019 0.762-0.131 1.512-0.334 2.251-0.21 0.741-0.512 1.45-0.906 2.126-0.394 0.676-0.91 1.273-1.548 1.791-0.636 0.524-1.358 0.905-2.168 1.142zM57.825 15.823v0c0.827-0.25 1.495-0.813 2.005-1.69 0.508-0.884 0.778-1.875 0.812-2.973v0c0.039-1.227-0.198-2.249-0.713-3.065-0.512-0.809-1.183-1.335-2.013-1.579v0c-0.212-0.063-0.384-0.104-0.518-0.122-0.127-0.021-0.275-0.031-0.444-0.031-0.165-0.008-0.329 0.008-0.492 0.049-0.163 0.041-0.289 0.076-0.377 0.106-0.089 0.03-0.208 0.063-0.359 0.099v0c-0.144 0.034-0.254 0.054-0.33 0.058-0.07 0.002-0.197 0.034-0.381 0.096v0c-0.173 0.03-0.341 0.108-0.504 0.233v0c-0.811 0.654-1.333 1.507-1.564 2.559-0.23 1.059-0.125 2.202 0.316 3.431v0c0.396 1.095 1.005 1.918 1.825 2.468 0.827 0.548 1.739 0.669 2.737 0.361z" fill="#ffffff" data-fill-palette-color="primary"></path><path d="M71.42 15.577v0c-0.358 0.075-0.68 0.01-0.966-0.195-0.286-0.198-0.474-0.475-0.562-0.831v0c-0.374-1.232-0.973-3.107-1.798-5.626v0c-0.741-2.356-1.392-4.416-1.95-6.18v0c-0.103-0.383-0.054-0.744 0.147-1.085 0.195-0.34 0.483-0.565 0.866-0.674 0.376-0.102 0.738-0.053 1.084 0.148 0.34 0.201 0.562 0.49 0.664 0.866v0c0.52 1.786 1.347 4.509 2.48 8.17v0c0.853-2.825 1.73-5.715 2.629-8.671v0c0.098-0.281 0.265-0.508 0.503-0.683 0.238-0.175 0.5-0.271 0.787-0.287v0c0.327-0.019 0.634 0.063 0.92 0.248 0.286 0.184 0.585 0.83 0.898 1.938v0l1.705 4.053 1.084 3.053c0.087-0.354 0.318-1.601 0.696-3.741 0.377-2.14 0.726-3.796 1.046-4.968v0c0.085-0.38 0.299-0.674 0.642-0.882 0.336-0.214 0.694-0.279 1.075-0.194 0.387 0.091 0.685 0.305 0.892 0.642 0.214 0.336 0.279 0.701 0.195 1.094v0c-0.321 1.158-0.632 2.544-0.933 4.157-0.308 1.613-0.509 2.637-0.604 3.072v0l-0.659 2.492-0.545 2.365c-0.063 0.292-0.196 0.541-0.399 0.747-0.202 0.206-0.446 0.331-0.732 0.375v0c-0.349 0.114-0.685 0.1-1.008-0.042-0.317-0.149-0.56-0.403-0.728-0.761v0c-0.787-1.871-1.552-3.787-2.297-5.748v0c-0.41-1.048-0.779-1.908-1.107-2.579v0l-2.606 8.719c-0.102 0.321-0.281 0.576-0.538 0.766-0.257 0.183-0.551 0.264-0.881 0.242z" fill="#ffffff" data-fill-palette-color="primary"></path><path d="M98.113 17.16v0c-0.543-0.009-0.953-0.254-1.228-0.736v0c-0.695-1.244-1.528-3.043-2.5-5.397v0c-1.092-2.404-1.878-4.043-2.357-4.919v0c-0.09 0.541-0.284 1.744-0.581 3.609-0.304 1.87-0.574 3.416-0.809 4.639v0c-0.076 0.394-0.278 0.703-0.607 0.926-0.329 0.223-0.691 0.297-1.085 0.221-0.388-0.074-0.696-0.277-0.926-0.607-0.223-0.329-0.297-0.691-0.221-1.085v0c0.227-1.183 0.559-3.109 0.997-5.778 0.436-2.662 0.811-4.669 1.125-6.019v0c0.089-0.392 0.3-0.695 0.635-0.91 0.334-0.215 0.697-0.278 1.089-0.19v0c0.188 0.05 0.361 0.127 0.518 0.233v0c0.241 0.128 0.436 0.319 0.585 0.572v0c0.176 0.327 0.461 0.845 0.856 1.554 0.394 0.716 0.689 1.253 0.887 1.612v0c0.606 0.927 1.449 2.585 2.53 4.972v0l0.698 1.586c0.641-3.127 1.136-5.669 1.484-7.626v0c0.076-0.394 0.275-0.704 0.597-0.928 0.322-0.224 0.681-0.302 1.077-0.233 0.389 0.068 0.696 0.263 0.92 0.586 0.224 0.322 0.308 0.683 0.253 1.08v0c-0.339 1.836-1.111 5.735-2.318 11.698v0c-0.086 0.379-0.283 0.675-0.589 0.888-0.307 0.214-0.65 0.298-1.03 0.252z" fill="#ffffff" data-fill-palette-color="primary"></path><path d="M101.87 17.611v0c0.005-0.41 0.148-0.746 0.43-1.006v0l9.162-8.868c0.212-0.19 0.46-0.311 0.742-0.365 0.277-0.057 0.551-0.03 0.825 0.081v0c0.296 0.077 0.544 0.25 0.744 0.519 0.203 0.263 0.313 0.56 0.33 0.892v0l-0.204 4.071-0.218 4.773-0.257 3.969c-0.02 0.396-0.177 0.729-0.471 0.999-0.297 0.261-0.648 0.383-1.052 0.367-0.408-0.026-0.747-0.185-1.017-0.479-0.273-0.303-0.403-0.646-0.389-1.029v0l0.052-2.971c-1.381-0.68-2.773-1.305-4.175-1.876v0l-2.058 2.047c-0.294 0.255-0.645 0.377-1.052 0.367-0.399-0.014-0.733-0.168-1.004-0.462-0.273-0.303-0.403-0.646-0.388-1.029zM108.69 14.506v0c0.474 0.218 1.161 0.534 2.061 0.948v0l0.244-3.147z" fill="#ffffff" data-fill-palette-color="primary"></path><path d="M118.592 25.919v0c-0.237 0.324-0.549 0.521-0.935 0.589-0.387 0.069-0.741-0.011-1.064-0.239-0.328-0.232-0.526-0.541-0.595-0.927-0.069-0.387 0.01-0.746 0.236-1.078v0c0.248-0.341 1.337-1.951 3.266-4.831v0c1.032-1.54 1.926-2.805 2.682-3.796v0c-0.907-0.618-1.677-1.134-2.309-1.549v0c-0.326-0.222-0.531-0.528-0.615-0.916-0.074-0.391-0.003-0.751 0.214-1.081 0.22-0.336 0.523-0.542 0.909-0.62 0.385-0.078 0.747-0.009 1.086 0.205v0c0.721 0.475 1.902 1.267 3.543 2.377 1.635 1.106 2.813 1.903 3.532 2.393v0c0.326 0.222 0.531 0.528 0.614 0.916 0.083 0.389 0.017 0.748-0.2 1.078-0.207 0.328-0.51 0.535-0.908 0.62-0.393 0.089-0.746 0.026-1.062-0.188v0c-0.713-0.486-1.518-1.022-2.414-1.608v0c-0.731 0.943-1.624 2.201-2.68 3.774v0c-1.952 2.913-3.052 4.54-3.3 4.881z" fill="#ffffff" data-fill-palette-color="primary"></path><path d="M123.899 31.906v0c-0.296-0.272-0.459-0.604-0.489-0.995-0.031-0.392 0.083-0.738 0.34-1.038v0c0.245-0.266 0.546-0.425 0.904-0.478 0.358-0.053 0.68 0.017 0.968 0.208v0c1.627-1.749 3.672-3.982 6.134-6.699v0c-0.192-0.276-0.28-0.585-0.266-0.927 0.014-0.342 0.141-0.643 0.382-0.904v0c0.267-0.291 0.602-0.442 1.004-0.454 0.398-0.007 0.744 0.125 1.039 0.397v0l1.7 1.591c0.291 0.267 0.44 0.604 0.448 1.012 0.007 0.398-0.123 0.742-0.391 1.032v0c-0.236 0.256-0.525 0.403-0.869 0.441-0.344 0.038-0.664-0.034-0.961-0.215v0c-2.417 2.687-4.434 4.9-6.052 6.639v0c0.215 0.27 0.318 0.579 0.309 0.925-0.009 0.346-0.124 0.649-0.346 0.909v0c-0.272 0.296-0.604 0.459-0.995 0.489-0.392 0.031-0.74-0.085-1.045-0.347v0z" fill="#ffffff" data-fill-palette-color="primary"></path><path d="M131.813 41.191v0c-0.576-0.831-0.94-1.688-1.093-2.57-0.151-0.891-0.11-1.726 0.124-2.505 0.236-0.789 0.585-1.521 1.049-2.196 0.463-0.675 1.025-1.27 1.685-1.784v0c0.732-0.585 1.482-1.04 2.25-1.367 0.772-0.321 1.574-0.54 2.408-0.656 0.824-0.118 1.673-0.074 2.548 0.13 0.869 0.209 1.662 0.583 2.379 1.124v0c0.269 0.224 0.537 0.513 0.802 0.866v0l0.26 0.345c0.133 0.176 0.222 0.306 0.267 0.389 0.046 0.083 0.103 0.17 0.171 0.261v0c0.255 0.361 0.452 0.656 0.592 0.886 0.14 0.23 0.279 0.565 0.417 1.005 0.148 0.441 0.233 0.922 0.256 1.441v0c0.051 1.159-0.185 2.225-0.71 3.197-0.524 0.973-1.221 1.777-2.089 2.415-0.869 0.637-1.808 1.109-2.817 1.416v0c-0.729 0.222-1.476 0.353-2.241 0.393-0.769 0.035-1.537-0.028-2.303-0.189-0.766-0.161-1.495-0.462-2.188-0.904-0.698-0.438-1.287-1.004-1.767-1.697zM134.145 39.599v0c0.498 0.706 1.243 1.162 2.236 1.37 0.999 0.203 2.024 0.147 3.078-0.168v0c1.177-0.35 2.072-0.898 2.683-1.643 0.606-0.741 0.894-1.544 0.863-2.408v0c-0.007-0.221-0.023-0.397-0.047-0.53-0.02-0.127-0.057-0.271-0.111-0.432-0.044-0.159-0.112-0.31-0.202-0.451-0.09-0.142-0.163-0.25-0.219-0.325-0.056-0.075-0.125-0.178-0.207-0.309v0c-0.078-0.126-0.131-0.224-0.16-0.295-0.024-0.066-0.095-0.176-0.211-0.33v0c-0.083-0.155-0.21-0.29-0.38-0.405v0c-0.876-0.563-1.85-0.789-2.922-0.678-1.077 0.116-2.129 0.576-3.156 1.383v0c-0.914 0.722-1.503 1.558-1.766 2.51-0.259 0.957-0.086 1.861 0.521 2.711z" fill="#ffffff" data-fill-palette-color="primary"></path><path d="M142.188 59.553v0c-0.304-0.451-0.337-0.927-0.099-1.428v0c0.622-1.282 1.62-2.995 2.994-5.139v0c1.346-2.271 2.241-3.854 2.684-4.749v0c-0.496 0.236-1.593 0.766-3.291 1.59-1.708 0.821-3.13 1.485-4.266 1.992v0c-0.367 0.164-0.736 0.174-1.107 0.032-0.371-0.142-0.639-0.396-0.802-0.763-0.161-0.361-0.172-0.729-0.033-1.107 0.142-0.371 0.396-0.639 0.764-0.802v0c1.1-0.491 2.869-1.321 5.308-2.49 2.433-1.166 4.292-2.007 5.579-2.522v0c0.372-0.151 0.742-0.152 1.11-0.001 0.368 0.151 0.627 0.412 0.778 0.784v0c0.067 0.183 0.102 0.368 0.106 0.558v0c0.033 0.271-0.012 0.54-0.134 0.807v0c-0.167 0.331-0.429 0.862-0.784 1.592-0.362 0.733-0.633 1.283-0.814 1.649v0c-0.414 1.027-1.29 2.668-2.629 4.922v0l-0.901 1.479c2.931-1.264 5.299-2.313 7.103-3.148v0c0.367-0.164 0.734-0.177 1.102-0.041 0.368 0.136 0.638 0.386 0.808 0.75 0.167 0.358 0.183 0.721 0.046 1.089-0.136 0.368-0.383 0.644-0.741 0.826v0c-1.699 0.773-5.339 2.372-10.919 4.795v0c-0.36 0.146-0.715 0.154-1.066 0.025-0.351-0.129-0.616-0.363-0.796-0.7z" fill="#ffffff" data-fill-palette-color="primary"></path><path d="M11.958 112.922v0c-0.983-0.344-1.812-0.855-2.49-1.532-0.684-0.675-1.175-1.428-1.474-2.26-0.297-0.825-0.452-1.691-0.466-2.599-0.007-0.91 0.157-1.801 0.492-2.673 0.341-0.874 0.82-1.646 1.436-2.315v0c0.768-0.839 1.664-1.455 2.689-1.847 1.019-0.39 2.025-0.553 3.018-0.491v0c0.998 0.039 1.957 0.27 2.876 0.695v0c0.958 0.432 1.769 0.999 2.435 1.702v0c0.691 0.715 1.209 1.598 1.553 2.648 0.344 1.05 0.406 2.157 0.186 3.322v0c-0.028 0.31-0.087 0.596-0.176 0.857-0.092 0.255-0.201 0.509-0.329 0.763-0.128 0.254-0.227 0.447-0.299 0.581-0.081 0.13-0.21 0.33-0.388 0.602-0.178 0.272-0.289 0.445-0.333 0.519v0c-0.22 0.331-0.522 0.538-0.905 0.622-0.391 0.08-0.751 0.013-1.079-0.201-0.328-0.214-0.535-0.513-0.619-0.896-0.084-0.383-0.018-0.746 0.198-1.089v0l0.357-0.57 0.318-0.47c0.057-0.078 0.121-0.194 0.193-0.349 0.08-0.151 0.136-0.289 0.168-0.415 0.041-0.122 0.078-0.271 0.113-0.448v0c0.132-1.075-0.03-2.007-0.484-2.796-0.461-0.786-1.146-1.378-2.056-1.777v0c-0.919-0.424-1.853-0.558-2.801-0.402-0.952 0.165-1.791 0.617-2.518 1.355v0c-0.684 0.737-1.078 1.574-1.182 2.511-0.108 0.946 0.065 1.812 0.519 2.6 0.461 0.786 1.129 1.331 2.005 1.637v0c0.396 0.146 0.69 0.209 0.882 0.188v0c0.103-0.01 0.195-0.022 0.275-0.037v0c-0.126-0.381-0.408-1.087-0.844-2.117v0c-0.151-0.372-0.154-0.738-0.009-1.099 0.145-0.36 0.404-0.616 0.776-0.767 0.372-0.151 0.738-0.154 1.099-0.009 0.36 0.145 0.616 0.404 0.767 0.777v0c0.424 1.035 0.879 2.211 1.365 3.53v0c0.139 0.377 0.123 0.75-0.048 1.119v0c-0.166 0.382-0.452 0.641-0.858 0.776v0l-0.443 0.163c-0.309 0.128-0.618 0.238-0.927 0.331-0.315 0.095-0.597 0.159-0.848 0.195v0c-0.636 0.056-1.35-0.055-2.144-0.334z" fill="#ffffff" data-fill-palette-color="primary"></path><path d="M76.8 156.799v0c0.007-0.341 0.013-0.813 0.018-1.415 0.005-0.602 0.011-1.074 0.018-1.415v0l0.024-1.185-2-3.473c-0.991-1.686-1.724-3.002-2.201-3.949v0c-0.187-0.345-0.22-0.707-0.099-1.086 0.115-0.379 0.351-0.659 0.71-0.839 0.352-0.187 0.717-0.223 1.096-0.109 0.379 0.121 0.659 0.361 0.839 0.719v0c0.439 0.825 1.438 2.588 2.998 5.29v0l1.158-1.714 2.419-3.506c0.214-0.324 0.516-0.532 0.906-0.624 0.39-0.086 0.75-0.019 1.08 0.202 0.337 0.221 0.549 0.523 0.634 0.906 0.093 0.39 0.025 0.753-0.202 1.09v0c-0.09 0.139-0.913 1.337-2.47 3.595v0c-0.84 1.208-1.503 2.222-1.988 3.043v0c0.007 0.315 0 1.011-0.021 2.088-0.021 1.077-0.03 1.863-0.027 2.359v0c0.005 0.402-0.132 0.744-0.412 1.026-0.28 0.282-0.621 0.426-1.022 0.431-0.402 0.005-0.744-0.132-1.026-0.411-0.282-0.28-0.426-0.621-0.432-1.023z" fill="#ffffff" data-fill-palette-color="primary"></path><path d="M152.16 102.801v0c0.364 0.17 0.616 0.441 0.755 0.813 0.137 0.378 0.122 0.747-0.045 1.105-0.17 0.364-0.441 0.616-0.813 0.755-0.378 0.137-0.747 0.122-1.105-0.045v0c-0.814-0.376-3.254-1.402-7.319-3.078v0c0.774 1.443 1.641 2.908 2.6 4.393v0c0.21 0.344 0.272 0.709 0.188 1.095-0.078 0.389-0.283 0.69-0.615 0.906v0c-0.04 0.026-0.078 0.047-0.113 0.06v0c-0.153 0.102-0.312 0.176-0.477 0.223v0l-4.945 1.361c0.03-0.002 1.244 0.512 3.641 1.542 2.404 1.033 3.612 1.551 3.625 1.557v0c0.369 0.158 0.628 0.421 0.776 0.789 0.148 0.369 0.144 0.738-0.014 1.107-0.158 0.369-0.421 0.628-0.789 0.777-0.369 0.148-0.738 0.144-1.107-0.014v0c-0.536-0.228-1.43-0.613-2.683-1.155-1.253-0.542-2.221-0.958-2.904-1.25-0.683-0.291-1.538-0.641-2.564-1.05v0c-0.909-0.359-1.861-0.71-2.857-1.054v0c-0.374-0.13-0.65-0.379-0.828-0.746-0.175-0.358-0.197-0.724-0.066-1.098v0c0.069-0.196 0.17-0.364 0.302-0.504v0c0.201-0.336 0.496-0.549 0.883-0.638v0l7.099-1.959c-1.317-2.184-2.433-4.308-3.349-6.372v0c-0.343-0.459-0.396-0.947-0.161-1.466v0c0.17-0.364 0.441-0.616 0.813-0.755 0.378-0.137 0.747-0.122 1.105 0.046v0c1.191 0.551 3.034 1.338 5.53 2.358 2.496 1.021 4.309 1.787 5.437 2.297z" fill="#ffffff" data-fill-palette-color="primary"></path><path d="M6.322 81.059c0-0.944 0.765-1.709 1.709-1.708 0.944 0 1.709 0.765 1.709 1.708 0 0.944-0.765 1.709-1.709 1.709-0.944 0-1.709-0.765-1.709-1.709z" fill="#ffffff" data-fill-palette-color="primary"></path><path d="M149.269 81.059c0-0.944 0.765-1.709 1.709-1.708 0.944 0 1.709 0.765 1.709 1.708 0 0.944-0.765 1.709-1.709 1.709-0.944 0-1.709-0.765-1.709-1.709z" fill="#ffffff" data-fill-palette-color="primary"></path></g></svg></g></svg></g></svg></g><g></g></svg></g></svg></g><g><path d="M25.168 110.239v0c-0.488-0.168-2.08-0.721-4.776-1.661-2.702-0.942-4.55-1.576-5.543-1.903-0.993-0.327-2.459-0.805-4.397-1.436-1.934-0.621-3.673-1.158-5.218-1.611v0c-0.672-0.21-1.172-0.622-1.499-1.237-0.336-0.611-0.41-1.261-0.224-1.948v0l0.059-0.171c1.046-3.191 2.516-7.473 4.41-12.845v0c0.222-0.647 0.657-1.128 1.304-1.445v0c0.647-0.295 1.297-0.331 1.95-0.106 0.659 0.226 1.14 0.664 1.441 1.313 0.31 0.645 0.351 1.3 0.122 1.966v0c-1.522 4.268-2.721 7.718-3.597 10.351v0c1.486 0.461 3.041 0.956 4.667 1.485v0c1.114-3.245 2.107-6.249 2.977-9.012v0c0.231-0.672 0.657-1.17 1.279-1.495 0.628-0.323 1.274-0.377 1.937-0.164 0.657 0.211 1.147 0.631 1.471 1.26 0.331 0.624 0.396 1.262 0.192 1.915v0c-0.898 2.781-1.903 5.82-3.013 9.116v0l8.12 2.789c0.666 0.229 1.154 0.662 1.467 1.3 0.308 0.63 0.347 1.281 0.116 1.953-0.229 0.666-0.658 1.152-1.288 1.461-0.639 0.312-1.291 0.354-1.957 0.125z" fill="#ffffff" data-fill-palette-color="accent"></path><path d="M36.81 88.156v0c-0.333 0.62-0.83 1.045-1.494 1.275-0.66 0.224-1.305 0.179-1.935-0.136v0c-0.561-0.301-0.967-0.743-1.217-1.326-0.247-0.589-0.271-1.176-0.071-1.76v0c-3.72-2.025-8.456-4.553-14.208-7.584v0c-0.385 0.463-0.873 0.756-1.464 0.881-0.591 0.124-1.164 0.037-1.72-0.261v0c-0.626-0.336-1.031-0.842-1.216-1.519-0.187-0.686-0.115-1.339 0.218-1.959v0l1.983-3.614c0.336-0.626 0.842-1.031 1.519-1.216 0.68-0.191 1.333-0.118 1.959 0.218v0c0.532 0.285 0.906 0.714 1.124 1.287 0.218 0.573 0.238 1.158 0.062 1.756v0c5.676 2.959 10.363 5.442 14.064 7.449v0c0.374-0.484 0.859-0.794 1.456-0.93 0.598-0.136 1.168-0.073 1.713 0.188v0c0.626 0.336 1.051 0.834 1.275 1.494 0.224 0.66 0.182 1.306-0.127 1.939v0z" fill="#ffffff" data-fill-palette-color="accent"></path><path d="M47.353 67.957v0c0.55 0.45 0.862 1.021 0.937 1.714 0.084 0.692-0.096 1.314-0.54 1.868-0.441 0.549-1.007 0.865-1.699 0.95-0.693 0.075-1.318-0.103-1.874-0.533v0c-0.582-0.475-3.317-2.569-8.205-6.284v0c-2.616-1.986-4.763-3.707-6.441-5.163v0c-1.192 1.544-2.187 2.854-2.985 3.932v0c-0.43 0.557-0.99 0.882-1.68 0.976-0.689 0.103-1.319-0.057-1.89-0.481-0.565-0.419-0.895-0.974-0.988-1.664-0.099-0.694 0.059-1.326 0.473-1.896v0c0.917-1.231 2.441-3.238 4.572-6.021 2.131-2.783 3.666-4.781 4.604-5.996v0c0.43-0.557 0.994-0.888 1.693-0.992 0.703-0.11 1.329 0.044 1.879 0.46 0.56 0.415 0.899 0.974 1.018 1.676 0.115 0.707-0.037 1.331-0.454 1.871v0c-0.938 1.215-1.978 2.579-3.121 4.093v0c1.603 1.39 3.744 3.102 6.423 5.137v0c4.941 3.755 7.701 5.873 8.278 6.353z" fill="#ffffff" data-fill-palette-color="accent"></path><path d="M55.665 58.384v0c-0.344-0.384-1.464-1.644-3.36-3.779-1.9-2.14-3.204-3.595-3.911-4.364-0.708-0.77-1.754-1.902-3.139-3.397-1.385-1.485-2.642-2.802-3.77-3.951v0c-0.485-0.511-0.72-1.114-0.706-1.812 0.005-0.697 0.256-1.301 0.754-1.809v0l0.135-0.121c2.469-2.276 5.84-5.297 10.114-9.065v0c0.509-0.456 1.123-0.665 1.843-0.625v0c0.709 0.058 1.293 0.344 1.754 0.858 0.465 0.519 0.671 1.135 0.618 1.849-0.044 0.714-0.328 1.306-0.852 1.776v0c-3.41 2.984-6.139 5.412-8.187 7.283v0c1.073 1.127 2.189 2.317 3.35 3.572v0c2.555-2.29 4.886-4.429 6.993-6.416v0c0.529-0.474 1.144-0.702 1.846-0.682 0.706 0.024 1.296 0.292 1.771 0.802 0.471 0.505 0.694 1.111 0.67 1.816-0.015 0.706-0.27 1.295-0.766 1.767v0c-2.14 1.99-4.499 4.153-7.076 6.49v0l5.73 6.393c0.47 0.524 0.685 1.141 0.646 1.851-0.038 0.7-0.322 1.288-0.851 1.761-0.524 0.47-1.136 0.685-1.836 0.647-0.71-0.039-1.3-0.32-1.77-0.844z" fill="#ffffff" data-fill-palette-color="accent"></path><path d="M77.748 44.227v0c-0.725 0.406-1.474 0.457-2.247 0.151v0c-0.67-0.172-1.193-0.555-1.569-1.151v0c-1.29-2.126-3.127-5.127-5.509-9.005v0l-5.326-8.775c-0.359-0.605-0.454-1.246-0.286-1.922 0.165-0.682 0.546-1.208 1.145-1.578 0.599-0.37 1.239-0.473 1.921-0.308 0.676 0.168 1.205 0.548 1.586 1.14v0l4.973 8.178 4.783 7.858c1.026-0.608 2.51-1.502 4.451-2.683 1.95-1.179 3.387-2.041 4.31-2.588v0c0.605-0.359 1.241-0.462 1.906-0.311 0.675 0.153 1.187 0.524 1.535 1.112 0.348 0.588 0.433 1.224 0.253 1.906-0.171 0.685-0.559 1.207-1.164 1.566v0c-0.692 0.41-2.477 1.479-5.356 3.208v0c-2.898 1.748-4.7 2.815-5.406 3.202z" fill="#ffffff" data-fill-palette-color="accent"></path><path d="M102.964 32.864v0c-1.732 0.505-3.385 0.636-4.958 0.394-1.567-0.244-2.946-0.781-4.137-1.611-1.193-0.836-2.228-1.832-3.104-2.987-0.876-1.155-1.564-2.433-2.063-3.835v0c-0.572-1.554-0.915-3.069-1.029-4.543-0.108-1.477-0.03-2.949 0.234-4.417 0.265-1.461 0.815-2.865 1.649-4.213 0.83-1.339 1.901-2.463 3.215-3.371v0c0.531-0.334 1.165-0.625 1.902-0.873v0l0.734-0.247c0.368-0.124 0.636-0.2 0.803-0.227 0.167-0.028 0.346-0.074 0.537-0.138v0c0.743-0.229 1.349-0.393 1.817-0.495 0.46-0.105 1.104-0.155 1.933-0.151 0.822 0.006 1.67 0.131 2.544 0.375v0c1.992 0.561 3.655 1.554 4.989 2.979 1.343 1.429 2.306 3.053 2.889 4.873 0.59 1.817 0.861 3.656 0.815 5.517v0c-0.035 1.348-0.234 2.681-0.597 3.997-0.363 1.317-0.898 2.575-1.605 3.775-0.701 1.197-1.614 2.257-2.739 3.179-1.134 0.918-2.41 1.591-3.829 2.019zM101.579 28.048v0c1.463-0.442 2.647-1.445 3.55-3.007 0.903-1.562 1.385-3.315 1.446-5.258v0c0.067-2.179-0.354-3.989-1.263-5.43-0.909-1.441-2.103-2.376-3.584-2.805v0c-0.367-0.103-0.667-0.175-0.9-0.217-0.231-0.035-0.496-0.056-0.795-0.061-0.29-0.001-0.58 0.032-0.868 0.101-0.28 0.073-0.502 0.137-0.667 0.192-0.159 0.053-0.37 0.11-0.632 0.17v0c-0.263 0.06-0.456 0.093-0.581 0.1-0.134 0.002-0.359 0.057-0.677 0.164v0c-0.32 0.058-0.619 0.198-0.899 0.419v0c-1.436 1.154-2.36 2.667-2.77 4.537-0.417 1.872-0.232 3.896 0.556 6.07v0c0.704 1.948 1.786 3.409 3.244 4.382 1.458 0.973 3.072 1.188 4.84 0.643z" fill="#ffffff" data-fill-palette-color="accent"></path><path d="M125.664 27.613v0c-0.623 0.131-1.191 0.016-1.702-0.343-0.511-0.359-0.845-0.85-1.003-1.472v0c-0.665-2.183-1.726-5.511-3.183-9.985v0c-1.318-4.166-2.469-7.818-3.451-10.955v0c-0.187-0.674-0.104-1.313 0.25-1.918 0.354-0.605 0.868-1.001 1.541-1.188 0.667-0.187 1.307-0.1 1.919 0.26 0.605 0.354 1.001 0.864 1.187 1.532v0c0.917 3.169 2.382 7.997 4.394 14.485v0c1.512-5.016 3.065-10.142 4.658-15.378v0c0.165-0.5 0.458-0.9 0.876-1.2 0.425-0.307 0.892-0.475 1.4-0.505v0c0.582-0.034 1.128 0.108 1.637 0.428 0.509 0.326 1.04 1.473 1.591 3.441v0l3.018 7.175 1.928 5.405c0.159-0.614 0.57-2.819 1.234-6.618 0.671-3.792 1.284-6.728 1.84-8.808v0c0.162-0.667 0.541-1.19 1.137-1.567 0.602-0.378 1.244-0.489 1.924-0.334 0.68 0.155 1.206 0.534 1.577 1.136 0.377 0.596 0.489 1.24 0.335 1.934v0c-0.564 2.061-1.115 4.52-1.652 7.377-0.537 2.858-0.894 4.671-1.071 5.441v0l-1.171 4.418-0.953 4.195c-0.117 0.517-0.353 0.957-0.708 1.321-0.362 0.357-0.795 0.577-1.301 0.66v0c-0.619 0.204-1.211 0.178-1.776-0.077-0.566-0.262-1.002-0.713-1.308-1.354v0c-1.389-3.309-2.746-6.704-4.071-10.184v0c-0.72-1.864-1.37-3.387-1.95-4.568v0l-4.613 15.446c-0.188 0.575-0.51 1.027-0.968 1.356-0.457 0.336-0.979 0.484-1.565 0.444z" fill="#ffffff" data-fill-palette-color="accent"></path><path d="M172.978 30.404v0c-0.967-0.008-1.689-0.444-2.165-1.306v0c-1.237-2.196-2.72-5.381-4.451-9.556v0c-1.932-4.261-3.32-7.165-4.163-8.711v0c-0.157 0.959-0.504 3.09-1.042 6.392-0.533 3.31-1.008 6.051-1.425 8.223v0c-0.134 0.698-0.494 1.243-1.082 1.634-0.582 0.4-1.222 0.533-1.919 0.4-0.691-0.133-1.233-0.493-1.625-1.08-0.4-0.582-0.533-1.222-0.399-1.919v0c0.403-2.1 0.99-5.512 1.76-10.237 0.77-4.725 1.436-8.282 1.997-10.672v0c0.154-0.694 0.529-1.229 1.127-1.605 0.592-0.384 1.232-0.497 1.918-0.338v0c0.332 0.084 0.641 0.215 0.928 0.393v0c0.426 0.232 0.771 0.571 1.033 1.017v0c0.311 0.585 0.816 1.508 1.516 2.768 0.7 1.26 1.224 2.211 1.572 2.851v0c1.071 1.639 2.564 4.577 4.48 8.813v0l1.244 2.798c1.136-5.528 2.014-10.031 2.634-13.508v0c0.133-0.691 0.483-1.238 1.052-1.64 0.574-0.395 1.208-0.532 1.902-0.413 0.7 0.121 1.248 0.468 1.642 1.042 0.401 0.575 0.546 1.21 0.433 1.905v0c-0.598 3.256-1.962 10.17-4.094 20.741v0c-0.149 0.668-0.494 1.188-1.037 1.562-0.544 0.38-1.156 0.529-1.836 0.446z" fill="#ffffff" data-fill-palette-color="accent"></path><path d="M179.629 31.204v0c0.013-0.717 0.272-1.306 0.779-1.766v0l16.231-15.727c0.37-0.339 0.805-0.555 1.305-0.65 0.498-0.088 0.984-0.038 1.458 0.151v0c0.526 0.139 0.97 0.442 1.33 0.91 0.357 0.474 0.551 0.999 0.582 1.573v0l-0.354 7.241-0.395 8.46-0.46 7.014c-0.031 0.709-0.307 1.301-0.828 1.777-0.525 0.467-1.147 0.682-1.869 0.646-0.721-0.037-1.321-0.32-1.8-0.851-0.479-0.53-0.709-1.137-0.689-1.821v0l0.09-5.271c-2.441-1.204-4.906-2.308-7.395-3.313v0l-3.638 3.627c-0.528 0.458-1.151 0.673-1.868 0.646-0.714-0.019-1.311-0.293-1.79-0.824-0.482-0.524-0.712-1.131-0.689-1.822zM191.726 25.714v0c0.84 0.387 2.055 0.945 3.644 1.677v0l0.443-5.583z" fill="#ffffff" data-fill-palette-color="accent"></path><path d="M209.276 45.941v0c-0.416 0.576-0.968 0.922-1.655 1.037-0.685 0.125-1.318-0.018-1.898-0.428-0.574-0.407-0.924-0.953-1.049-1.639-0.116-0.687 0.024-1.321 0.421-1.903v0c0.439-0.609 2.367-3.464 5.784-8.564v0c1.826-2.729 3.417-4.975 4.77-6.737v0c-1.612-1.098-2.979-2.013-4.102-2.746v0c-0.582-0.396-0.94-0.936-1.075-1.619-0.144-0.682-0.021-1.32 0.368-1.915 0.385-0.589 0.919-0.951 1.603-1.085 0.687-0.14 1.327-0.02 1.92 0.359v0c1.284 0.842 3.378 2.244 6.283 4.205 2.905 1.962 4.991 3.375 6.259 4.239v0c0.582 0.396 0.945 0.94 1.091 1.631 0.151 0.695 0.035 1.329-0.348 1.904-0.381 0.584-0.918 0.956-1.611 1.116-0.699 0.157-1.33 0.043-1.896-0.342v0c-1.269-0.864-2.692-1.821-4.271-2.873v0c-1.292 1.683-2.874 3.922-4.745 6.718v0c-3.455 5.156-5.404 8.036-5.849 8.642z" fill="#ffffff" data-fill-palette-color="accent"></path><path d="M218.676 56.549v0c-0.518-0.476-0.806-1.064-0.864-1.764-0.053-0.695 0.152-1.308 0.614-1.84v0c0.431-0.469 0.96-0.752 1.586-0.849 0.632-0.093 1.206 0.03 1.723 0.369v0c2.887-3.1 6.513-7.058 10.88-11.874v0c-0.352-0.488-0.515-1.034-0.489-1.637 0.027-0.604 0.254-1.137 0.68-1.601v0c0.481-0.523 1.072-0.79 1.774-0.8 0.711-0.011 1.326 0.222 1.844 0.698v0l3.006 2.82c0.523 0.481 0.79 1.072 0.8 1.773 0.015 0.706-0.217 1.321-0.698 1.844v0c-0.408 0.444-0.917 0.7-1.526 0.768-0.609 0.068-1.181-0.057-1.716-0.376v0c-4.278 4.761-7.849 8.684-10.714 11.768v0c0.376 0.482 0.555 1.03 0.539 1.642-0.017 0.613-0.22 1.15-0.609 1.612v0c-0.481 0.523-1.069 0.811-1.764 0.864-0.695 0.053-1.311-0.149-1.846-0.606v0z" fill="#ffffff" data-fill-palette-color="accent"></path><path d="M232.7 73.017v0c-1.025-1.485-1.671-3.012-1.938-4.581-0.263-1.564-0.188-3.042 0.224-4.434 0.417-1.396 1.036-2.692 1.855-3.887 0.82-1.196 1.816-2.252 2.988-3.168v0c1.294-1.033 2.623-1.836 3.987-2.41 1.368-0.568 2.789-0.958 4.265-1.171 1.47-0.209 2.976-0.13 4.518 0.236 1.533 0.365 2.937 1.027 4.213 1.987v0c0.485 0.399 0.961 0.909 1.429 1.53v0l0.465 0.618c0.234 0.311 0.39 0.541 0.47 0.691 0.079 0.15 0.179 0.305 0.3 0.466v0c0.451 0.633 0.799 1.156 1.042 1.569 0.245 0.403 0.496 0.998 0.753 1.786 0.253 0.782 0.402 1.627 0.447 2.532v0c0.096 2.067-0.322 3.958-1.253 5.674-0.933 1.725-2.17 3.152-3.713 4.279-1.538 1.133-3.198 1.97-4.978 2.514v0c-1.29 0.392-2.617 0.624-3.982 0.694-1.364 0.071-2.727-0.04-4.088-0.333-1.357-0.287-2.651-0.819-3.881-1.596-1.229-0.786-2.27-1.785-3.123-2.996zM236.833 70.183v0c0.881 1.249 2.206 2.056 3.973 2.42 1.767 0.364 3.583 0.269 5.446-0.287v0c2.089-0.624 3.673-1.595 4.754-2.911 1.081-1.317 1.591-2.745 1.531-4.285v0c-0.018-0.381-0.044-0.688-0.078-0.923-0.039-0.23-0.103-0.488-0.192-0.774-0.09-0.276-0.213-0.54-0.37-0.791-0.157-0.242-0.288-0.433-0.393-0.573-0.101-0.134-0.221-0.316-0.36-0.546v0c-0.14-0.23-0.233-0.404-0.279-0.52-0.044-0.126-0.167-0.323-0.369-0.591v0c-0.156-0.285-0.383-0.525-0.68-0.72v0c-1.549-0.999-3.275-1.398-5.18-1.198-1.908 0.195-3.77 1.009-5.585 2.442v0c-1.626 1.283-2.671 2.77-3.135 4.461-0.464 1.691-0.158 3.29 0.917 4.796z" fill="#ffffff" data-fill-palette-color="accent"></path><path d="M251.099 105.539v0c-0.547-0.798-0.603-1.639-0.168-2.523v0c1.093-2.271 2.855-5.311 5.287-9.119v0c2.388-4.023 3.975-6.823 4.761-8.4v0c-0.876 0.421-2.823 1.355-5.838 2.804-3.019 1.458-5.538 2.637-7.558 3.538v0c-0.649 0.29-1.302 0.306-1.96 0.049-0.661-0.248-1.136-0.696-1.426-1.345-0.287-0.643-0.302-1.293-0.045-1.951 0.248-0.661 0.696-1.136 1.345-1.426v0c1.952-0.871 5.086-2.343 9.402-4.416 4.315-2.073 7.613-3.563 9.894-4.471v0c0.657-0.271 1.311-0.269 1.961 0.006 0.654 0.266 1.113 0.725 1.375 1.378v0c0.121 0.32 0.191 0.649 0.209 0.986v0c0.054 0.482-0.027 0.959-0.243 1.43v0c-0.302 0.59-0.769 1.532-1.402 2.827-0.633 1.295-1.112 2.269-1.437 2.921v0c-0.731 1.816-2.285 4.722-4.663 8.719v0l-1.582 2.621c5.183-2.233 9.378-4.09 12.584-5.572v0c0.643-0.287 1.292-0.312 1.948-0.077 0.652 0.245 1.128 0.686 1.427 1.323 0.302 0.643 0.33 1.291 0.085 1.943-0.242 0.658-0.68 1.14-1.314 1.446v0c-3.012 1.374-9.463 4.212-19.351 8.515v0c-0.632 0.26-1.257 0.275-1.874 0.044-0.623-0.228-1.095-0.645-1.417-1.25z" fill="#ffffff" data-fill-palette-color="accent"></path><path d="M11.699 181.705v0c0.488-0.168 2.084-0.709 4.789-1.624 2.711-0.917 4.559-1.551 5.544-1.903 0.984-0.352 2.435-0.875 4.35-1.568 1.908-0.698 3.61-1.342 5.108-1.935v0c0.659-0.248 1.307-0.229 1.943 0.056 0.64 0.276 1.098 0.743 1.373 1.399v0l0.059 0.171c1.135 3.16 2.605 7.442 4.41 12.846v0c0.222 0.647 0.175 1.293-0.141 1.94v0c-0.329 0.63-0.82 1.058-1.473 1.282-0.659 0.226-1.307 0.176-1.944-0.151-0.641-0.319-1.075-0.811-1.304-1.476v0c-1.421-4.302-2.594-7.761-3.521-10.377v0c-1.455 0.549-2.987 1.114-4.594 1.695v0c1.114 3.245 2.176 6.225 3.186 8.939v0c0.231 0.672 0.201 1.327-0.09 1.966-0.297 0.641-0.773 1.08-1.428 1.319-0.649 0.237-1.293 0.207-1.934-0.09-0.645-0.289-1.088-0.753-1.329-1.394v0c-1-2.746-2.074-5.761-3.222-9.044v0l-8.12 2.788c-0.666 0.229-1.318 0.187-1.956-0.125-0.63-0.308-1.061-0.798-1.292-1.47-0.229-0.666-0.189-1.313 0.12-1.944 0.312-0.639 0.801-1.072 1.466-1.3z" fill="#ffffff" data-fill-palette-color="accent"></path><path d="M19.563 208.41v0c-0.333-0.62-0.411-1.27-0.235-1.95 0.179-0.674 0.573-1.186 1.184-1.536v0c0.561-0.301 1.154-0.394 1.777-0.28 0.627 0.12 1.129 0.425 1.506 0.915v0c3.746-1.978 8.472-4.523 14.179-7.636v0c-0.172-0.577-0.147-1.146 0.078-1.707 0.224-0.561 0.613-0.99 1.168-1.288v0c0.626-0.336 1.272-0.393 1.938-0.172 0.675 0.224 1.179 0.646 1.512 1.265v0l1.912 3.652c0.336 0.626 0.393 1.272 0.172 1.938-0.218 0.672-0.64 1.176-1.266 1.511v0c-0.532 0.285-1.096 0.36-1.693 0.224-0.598-0.136-1.097-0.442-1.497-0.92v0c-5.606 3.089-10.268 5.619-13.988 7.591v0c0.196 0.579 0.186 1.155-0.031 1.728-0.218 0.573-0.586 1.014-1.105 1.322v0c-0.626 0.336-1.276 0.414-1.95 0.236-0.674-0.179-1.189-0.572-1.545-1.18v0z" fill="#ffffff" data-fill-palette-color="accent"></path><path d="M36.033 228.102v0c-0.575 0.418-1.206 0.576-1.896 0.473-0.69-0.094-1.247-0.426-1.67-0.996-0.419-0.565-0.582-1.193-0.489-1.884 0.103-0.689 0.433-1.249 0.99-1.679v0c0.606-0.443 3.325-2.558 8.156-6.347v0c2.583-2.028 4.791-3.669 6.625-4.924v0c-1.192-1.544-2.208-2.838-3.048-3.883v0c-0.43-0.557-0.603-1.181-0.519-1.872 0.075-0.693 0.389-1.262 0.943-1.707 0.549-0.441 1.169-0.619 1.861-0.534 0.697 0.08 1.268 0.393 1.714 0.937v0c0.959 1.198 2.515 3.181 4.668 5.947 2.153 2.766 3.698 4.757 4.635 5.972v0c0.43 0.557 0.607 1.187 0.531 1.889-0.072 0.707-0.379 1.275-0.921 1.702-0.544 0.437-1.17 0.624-1.878 0.561-0.713-0.068-1.278-0.372-1.696-0.914v0c-0.938-1.215-1.994-2.567-3.169-4.056v0c-1.75 1.199-3.949 2.837-6.596 4.914v0c-4.884 3.83-7.631 5.963-8.241 6.401z" fill="#ffffff" data-fill-palette-color="accent"></path><path d="M46.161 239.54v0c0.344-0.384 1.474-1.635 3.39-3.752 1.92-2.122 3.224-3.577 3.911-4.365 0.688-0.788 1.699-1.951 3.034-3.49 1.325-1.539 2.497-2.932 3.516-4.18v0c0.455-0.537 1.029-0.837 1.724-0.898 0.694-0.071 1.321 0.113 1.881 0.552v0l0.135 0.12c2.532 2.206 5.903 5.228 10.114 9.065v0c0.509 0.456 0.783 1.044 0.822 1.763v0c0.02 0.711-0.2 1.323-0.661 1.837-0.465 0.519-1.055 0.791-1.771 0.816-0.715 0.034-1.334-0.183-1.858-0.653v0c-3.338-3.064-6.049-5.511-8.133-7.343v0c-1.003 1.189-2.065 2.429-3.185 3.72v0c2.555 2.29 4.936 4.374 7.141 6.251v0c0.529 0.474 0.822 1.061 0.879 1.76 0.053 0.704-0.148 1.32-0.603 1.849-0.451 0.523-1.028 0.811-1.733 0.863-0.704 0.062-1.317-0.127-1.839-0.568v0c-2.212-1.91-4.62-4.019-7.224-6.325v0l-5.73 6.393c-0.47 0.524-1.059 0.805-1.769 0.844-0.7 0.038-1.315-0.18-1.844-0.653-0.524-0.47-0.805-1.055-0.843-1.755-0.039-0.71 0.177-1.327 0.646-1.851z" fill="#ffffff" data-fill-palette-color="accent"></path><path d="M67.817 259.86v0c-0.705-0.441-1.109-1.074-1.213-1.898v0c-0.172-0.67-0.087-1.313 0.255-1.929v0c1.244-2.153 2.994-5.206 5.249-9.159v0l5.136-8.887c0.359-0.605 0.875-0.997 1.548-1.175 0.677-0.183 1.322-0.101 1.935 0.246 0.612 0.347 1.01 0.859 1.193 1.537 0.177 0.674 0.098 1.32-0.237 1.939v0l-4.783 8.291-4.592 7.97c1.026 0.608 2.524 1.479 4.492 2.614 1.971 1.144 3.418 1.989 4.34 2.536v0c0.605 0.359 1.002 0.866 1.19 1.523 0.19 0.666 0.111 1.292-0.238 1.88-0.348 0.588-0.865 0.968-1.55 1.138-0.683 0.18-1.327 0.09-1.933-0.268v0c-0.692-0.41-2.488-1.462-5.386-3.156v0c-2.926-1.702-4.728-2.769-5.406-3.202z" fill="#ffffff" data-fill-palette-color="accent"></path><path d="M96.588 273.423v0c-1.685-0.644-3.082-1.538-4.189-2.681-1.101-1.141-1.876-2.402-2.324-3.782-0.446-1.387-0.669-2.806-0.67-4.255-0.001-1.45 0.223-2.884 0.672-4.303v0c0.483-1.584 1.124-2.998 1.925-4.242 0.806-1.242 1.758-2.368 2.854-3.379 1.094-1.004 2.38-1.791 3.859-2.362 1.47-0.566 3.003-0.815 4.598-0.745v0c0.625 0.055 1.306 0.206 2.043 0.454v0l0.734 0.246c0.368 0.124 0.628 0.225 0.778 0.304 0.15 0.079 0.321 0.15 0.511 0.214v0c0.731 0.267 1.313 0.501 1.747 0.704 0.43 0.194 0.974 0.543 1.632 1.047 0.651 0.502 1.252 1.114 1.801 1.836v0c1.248 1.65 1.974 3.446 2.176 5.387 0.207 1.95-0.006 3.826-0.64 5.629-0.628 1.804-1.522 3.434-2.683 4.889v0c-0.842 1.053-1.805 1.995-2.89 2.825-1.085 0.83-2.272 1.51-3.56 2.038-1.281 0.531-2.649 0.824-4.103 0.88-1.458 0.047-2.882-0.187-4.271-0.704zM98.393 268.748v0c1.433 0.531 2.982 0.447 4.645-0.252 1.663-0.699 3.106-1.805 4.329-3.317v0c1.369-1.696 2.127-3.393 2.273-5.091 0.146-1.697-0.241-3.164-1.162-4.399v0c-0.23-0.304-0.426-0.543-0.586-0.717-0.163-0.168-0.362-0.344-0.596-0.529-0.231-0.176-0.481-0.324-0.753-0.444-0.267-0.111-0.483-0.194-0.648-0.25-0.159-0.053-0.361-0.135-0.606-0.246v0c-0.246-0.111-0.42-0.201-0.524-0.271-0.108-0.079-0.321-0.171-0.638-0.279v0c-0.29-0.147-0.613-0.217-0.969-0.209v0c-1.842 0.053-3.491 0.7-4.949 1.943-1.463 1.24-2.538 2.965-3.224 5.174v0c-0.615 1.978-0.636 3.795-0.061 5.452 0.574 1.657 1.731 2.802 3.469 3.435z" fill="#ffffff" data-fill-palette-color="accent"></path><path d="M124.527 279.101v0c-0.634 0.057-1.184-0.123-1.65-0.54-0.466-0.417-0.74-0.943-0.824-1.579v0c-0.405-2.246-1.071-5.675-1.995-10.288v0c-0.823-4.291-1.539-8.052-2.148-11.283v0c-0.107-0.691 0.05-1.316 0.472-1.876 0.422-0.559 0.979-0.893 1.67-1 0.684-0.108 1.309 0.053 1.875 0.483 0.559 0.422 0.893 0.975 1 1.66v0c0.541 3.254 1.432 8.221 2.672 14.899v0c2.088-4.805 4.228-9.715 6.422-14.729v0c0.223-0.477 0.559-0.84 1.01-1.089 0.458-0.255 0.941-0.368 1.45-0.338v0c0.582 0.034 1.107 0.239 1.575 0.616 0.468 0.383 0.86 1.584 1.179 3.604v0l2.16 7.478 1.283 5.593c0.229-0.591 0.895-2.734 1.998-6.428 1.109-3.688 2.061-6.532 2.857-8.534v0c0.239-0.644 0.676-1.118 1.312-1.423 0.642-0.305 1.292-0.341 1.949-0.107 0.658 0.233 1.136 0.671 1.434 1.312 0.305 0.636 0.341 1.289 0.107 1.96v0c-0.801 1.981-1.635 4.359-2.503 7.134-0.868 2.776-1.434 4.535-1.699 5.278v0l-1.679 4.252-1.436 4.055c-0.177 0.5-0.463 0.909-0.857 1.229-0.401 0.312-0.857 0.48-1.369 0.503v0c-0.639 0.13-1.224 0.036-1.756-0.284-0.531-0.327-0.912-0.825-1.141-1.497v0c-0.993-3.448-1.944-6.978-2.853-10.59v0c-0.497-1.936-0.965-3.524-1.403-4.764v0l-6.386 14.801c-0.254 0.549-0.627 0.96-1.119 1.234-0.493 0.28-1.028 0.366-1.607 0.258z" fill="#ffffff" data-fill-palette-color="accent"></path><path d="M176.569 275.62v0c-0.902 0.351-1.733 0.213-2.495-0.412v0c-1.962-1.582-4.52-3.991-7.673-7.228v0c-3.373-3.242-5.737-5.426-7.092-6.552v0c0.21 0.949 0.676 3.057 1.398 6.324 0.73 3.272 1.304 5.994 1.721 8.166v0c0.134 0.698 0.001 1.337-0.4 1.92-0.392 0.587-0.937 0.948-1.635 1.081-0.691 0.133-1.328-0.001-1.909-0.401-0.587-0.392-0.948-0.937-1.081-1.635v0c-0.403-2.1-1.121-5.486-2.156-10.161-1.034-4.674-1.732-8.225-2.096-10.653v0c-0.114-0.701 0.037-1.338 0.453-1.909 0.408-0.576 0.96-0.918 1.656-1.024v0c0.339-0.045 0.675-0.037 1.007 0.022v0c0.482 0.058 0.927 0.245 1.337 0.562v0c0.505 0.428 1.316 1.099 2.433 2.01 1.117 0.912 1.955 1.6 2.515 2.066v0c1.601 1.126 4.077 3.302 7.426 6.529v0l2.192 2.138c-0.991-5.556-1.843-10.064-2.555-13.523v0c-0.133-0.691-0.009-1.329 0.37-1.914 0.387-0.579 0.925-0.942 1.613-1.088 0.695-0.147 1.332-0.027 1.912 0.36 0.586 0.386 0.955 0.922 1.107 1.61v0c0.65 3.246 1.943 10.174 3.877 20.783v0c0.109 0.675-0.019 1.287-0.385 1.835-0.364 0.554-0.878 0.919-1.541 1.094z" fill="#ffffff" data-fill-palette-color="accent"></path><path d="M186.462 270.97v0c-0.536-0.476-0.814-1.057-0.834-1.741v0l-1.38-22.558c-0.017-0.501 0.102-0.973 0.356-1.414 0.257-0.435 0.611-0.772 1.063-1.009v0c0.448-0.309 0.967-0.448 1.556-0.418 0.593 0.037 1.117 0.231 1.574 0.582v0l5.267 4.98 6.167 5.806 5.027 4.913c0.518 0.485 0.788 1.08 0.81 1.785 0.013 0.702-0.229 1.315-0.726 1.839-0.497 0.524-1.102 0.795-1.816 0.814-0.714 0.019-1.325-0.202-1.832-0.663v0l-3.944-3.497c-2.503 1.07-4.945 2.223-7.327 3.459v0l0.386 5.123c0.004 0.699-0.238 1.312-0.725 1.838-0.479 0.53-1.076 0.805-1.79 0.824-0.712 0.025-1.322-0.196-1.832-0.663zM190.165 258.212v0c0.84-0.387 2.055-0.945 3.644-1.676v0l-3.95-3.97z" fill="#ffffff" data-fill-palette-color="accent"></path><path d="M217.326 253.199v0c0.383 0.598 0.503 1.239 0.359 1.92-0.135 0.684-0.499 1.22-1.094 1.609-0.589 0.385-1.226 0.51-1.909 0.375-0.682-0.144-1.221-0.507-1.617-1.088v0c-0.406-0.632-2.356-3.471-5.85-8.519v0c-1.871-2.699-3.378-5.001-4.521-6.907v0c-1.612 1.098-2.964 2.035-4.057 2.812v0c-0.582 0.396-1.215 0.532-1.901 0.406-0.687-0.116-1.236-0.464-1.647-1.043-0.407-0.574-0.548-1.204-0.423-1.889 0.121-0.691 0.467-1.243 1.038-1.655v0c1.253-0.886 3.325-2.321 6.214-4.306 2.89-1.984 4.969-3.408 6.237-4.272v0c0.582-0.396 1.221-0.535 1.917-0.417 0.702 0.114 1.25 0.454 1.644 1.021 0.403 0.569 0.553 1.205 0.449 1.908-0.11 0.707-0.448 1.254-1.013 1.639v0c-1.269 0.864-2.681 1.838-4.237 2.922v0c1.092 1.818 2.597 4.11 4.512 6.876v0c3.532 5.103 5.498 7.972 5.899 8.608z" fill="#ffffff" data-fill-palette-color="accent"></path><path d="M231.923 245.174v0c-0.518 0.476-1.128 0.714-1.83 0.713-0.697-0.005-1.291-0.26-1.783-0.765v0c-0.431-0.469-0.669-1.019-0.713-1.652-0.04-0.637 0.131-1.199 0.512-1.686v0c-2.847-3.136-6.489-7.08-10.924-11.834v0c-0.516 0.31-1.073 0.427-1.673 0.35-0.599-0.077-1.112-0.348-1.538-0.811v0c-0.481-0.523-0.697-1.134-0.649-1.835 0.049-0.709 0.332-1.302 0.85-1.778v0l3.061-2.761c0.523-0.481 1.134-0.697 1.834-0.649 0.705 0.044 1.298 0.327 1.779 0.85v0c0.408 0.444 0.621 0.972 0.638 1.585 0.017 0.613-0.156 1.172-0.518 1.679v0c4.387 4.661 7.997 8.548 10.831 11.659v0c0.512-0.334 1.073-0.467 1.682-0.399 0.609 0.068 1.128 0.315 1.555 0.741v0c0.481 0.523 0.719 1.133 0.714 1.829-0.005 0.697-0.258 1.294-0.758 1.79v0z" fill="#ffffff" data-fill-palette-color="accent"></path><path d="M248.688 226.336v0c-1.143 1.396-2.432 2.439-3.865 3.13-1.43 0.685-2.871 1.023-4.323 1.012-1.457-0.015-2.873-0.25-4.249-0.707-1.376-0.457-2.666-1.122-3.871-1.995v0c-1.351-0.958-2.49-2.013-3.419-3.164-0.924-1.157-1.693-2.415-2.305-3.774-0.608-1.355-0.949-2.824-1.024-4.407-0.074-1.574 0.174-3.107 0.743-4.599v0c0.249-0.576 0.607-1.175 1.075-1.796v0l0.465-0.618c0.234-0.311 0.412-0.525 0.534-0.643 0.122-0.118 0.244-0.257 0.365-0.417v0c0.484-0.609 0.89-1.088 1.219-1.436 0.32-0.347 0.822-0.753 1.508-1.218 0.682-0.46 1.452-0.837 2.31-1.13v0c1.959-0.664 3.893-0.786 5.799-0.366 1.916 0.419 3.629 1.213 5.139 2.383 1.514 1.165 2.778 2.527 3.793 4.088v0c0.734 1.131 1.324 2.343 1.769 3.634 0.446 1.292 0.716 2.632 0.812 4.021 0.1 1.383-0.054 2.774-0.46 4.171-0.415 1.399-1.087 2.676-2.015 3.831zM244.821 223.149v0c0.956-1.193 1.365-2.689 1.226-4.488-0.139-1.799-0.733-3.517-1.782-5.154v0c-1.178-1.834-2.549-3.089-4.114-3.763-1.564-0.674-3.078-0.769-4.541-0.285v0c-0.361 0.123-0.649 0.233-0.865 0.33-0.211 0.102-0.441 0.234-0.691 0.399-0.24 0.163-0.46 0.354-0.658 0.574-0.189 0.218-0.336 0.397-0.441 0.536-0.101 0.134-0.242 0.3-0.425 0.498v0c-0.183 0.198-0.324 0.335-0.423 0.412-0.109 0.078-0.264 0.25-0.466 0.518v0c-0.231 0.229-0.399 0.513-0.504 0.853v0c-0.531 1.764-0.437 3.534 0.283 5.309 0.715 1.78 2.013 3.344 3.893 4.691v0c1.683 1.208 3.401 1.801 5.154 1.778 1.753-0.023 3.205-0.759 4.354-2.208z" fill="#ffffff" data-fill-palette-color="accent"></path><path d="M268.492 189.543v0c-0.229 0.94-0.817 1.543-1.766 1.81v0c-2.42 0.703-5.86 1.421-10.319 2.154v0c-4.589 0.909-7.733 1.598-9.431 2.065v0c0.898 0.372 2.894 1.196 5.985 2.474 3.101 1.274 5.661 2.362 7.681 3.263v0c0.649 0.29 1.097 0.765 1.346 1.426 0.257 0.658 0.241 1.311-0.049 1.959-0.287 0.643-0.761 1.088-1.422 1.336-0.658 0.257-1.311 0.241-1.96-0.049v0c-1.952-0.871-5.141-2.221-9.565-4.049-4.424-1.828-7.736-3.288-9.935-4.379v0c-0.641-0.308-1.076-0.796-1.306-1.463-0.239-0.665-0.203-1.313 0.108-1.945v0c0.158-0.304 0.356-0.575 0.594-0.813v0c0.323-0.362 0.732-0.62 1.226-0.774v0c0.641-0.169 1.654-0.451 3.041-0.845 1.387-0.394 2.431-0.687 3.134-0.88v0c1.84-0.669 5.041-1.453 9.604-2.352v0l3.008-0.573c-5.123-2.367-9.307-4.249-12.552-5.646v0c-0.643-0.287-1.095-0.753-1.357-1.398-0.253-0.649-0.243-1.297 0.032-1.946 0.277-0.654 0.74-1.108 1.389-1.361 0.652-0.26 1.303-0.255 1.954 0.013v0c3.034 1.325 9.454 4.231 19.26 8.718v0c0.616 0.297 1.044 0.752 1.284 1.365 0.246 0.616 0.251 1.246 0.016 1.89z" fill="#ffffff" data-fill-palette-color="accent"></path><path d="M3.231 143.66c0-5.577 4.521-10.099 10.099-10.099 5.577 0 10.099 4.521 10.099 10.099 0 5.577-4.521 10.099-10.099 10.098-5.577 0-10.099-4.521-10.099-10.098z" fill="#ffffff" data-fill-palette-color="accent"></path><path d="M256.571 143.66c0-5.577 4.521-10.099 10.099-10.099 5.577 0 10.099 4.521 10.099 10.099 0 5.577-4.521 10.099-10.099 10.098-5.577 0-10.099-4.521-10.099-10.098z" fill="#ffffff" data-fill-palette-color="accent"></path></g></svg></g><defs></defs></svg><rect width="280" height="280" fill="none" stroke="none" visibility="hidden"></rect></g></svg></g></svg>